<svg xmlns="http://www.w3.org/2000/svg" width="1200" height="520" viewBox="0 0 1200 520" role="img" aria-labelledby="title desc">
  <title id="title">Storyboard deck thumbnail</title>
  <desc id="desc">A clean storyboard preview with slide panels, notes, and sequencing markers.</desc>
  <defs>
    <linearGradient id="bg" x1="0" y1="0" x2="1" y2="1">
      <stop offset="0" stop-color="#eef7ff"/>
      <stop offset="1" stop-color="#f7fffb"/>
    </linearGradient>
    <linearGradient id="accent" x1="0" y1="0" x2="1" y2="1">
      <stop offset="0" stop-color="#14b8a6"/>
      <stop offset="1" stop-color="#2563eb"/>
    </linearGradient>
    <filter id="shadow" x="-20%" y="-20%" width="140%" height="140%">
      <feDropShadow dx="0" dy="18" stdDeviation="18" flood-color="#2a3e5c" flood-opacity=".16"/>
    </filter>
  </defs>
  <rect width="1200" height="520" fill="url(#bg)"/>
  <circle cx="1050" cy="70" r="170" fill="#dbeafe" opacity=".7"/>
  <circle cx="110" cy="440" r="170" fill="#ccfbf1" opacity=".65"/>
  <g filter="url(#shadow)">
    <rect x="100" y="72" width="1000" height="376" rx="34" fill="#fff"/>
    <rect x="100" y="72" width="1000" height="72" rx="34" fill="#172033"/>
    <rect x="100" y="112" width="1000" height="32" fill="#172033"/>
    <text x="144" y="119" fill="#fff" font-family="Inter, Segoe UI, Arial, sans-serif" font-size="30" font-weight="800">Storyboard Deck</text>
    <text x="880" y="117" fill="#bdd1e8" font-family="Inter, Segoe UI, Arial, sans-serif" font-size="18" font-weight="700">Learning flow</text>
  </g>
  <g font-family="Inter, Segoe UI, Arial, sans-serif">
    <g transform="translate(144 184)">
      <rect width="264" height="188" rx="18" fill="#f8fbff" stroke="#d7e4f2" stroke-width="2"/>
      <rect x="20" y="22" width="224" height="82" rx="12" fill="#e0f2fe"/>
      <path d="M38 82h72l26-28 30 30 20-18 40 42H38z" fill="url(#accent)" opacity=".75"/>
      <circle cx="202" cy="48" r="14" fill="#2563eb" opacity=".65"/>
      <text x="20" y="138" fill="#172033" font-size="18" font-weight="800">01. Opening</text>
      <rect x="20" y="152" width="190" height="8" rx="4" fill="#cad7e6"/>
      <rect x="20" y="168" width="145" height="8" rx="4" fill="#cad7e6"/>
    </g>
    <g transform="translate(468 184)">
      <rect width="264" height="188" rx="18" fill="#f8fbff" stroke="#d7e4f2" stroke-width="2"/>
      <rect x="20" y="22" width="92" height="82" rx="12" fill="#d1fae5"/>
      <rect x="132" y="22" width="112" height="20" rx="10" fill="#bfdbfe"/>
      <rect x="132" y="58" width="94" height="12" rx="6" fill="#cad7e6"/>
      <rect x="132" y="82" width="76" height="12" rx="6" fill="#cad7e6"/>
      <text x="20" y="138" fill="#172033" font-size="18" font-weight="800">02. Interaction</text>
      <rect x="20" y="152" width="198" height="8" rx="4" fill="#cad7e6"/>
      <rect x="20" y="168" width="126" height="8" rx="4" fill="#cad7e6"/>
    </g>
    <g transform="translate(792 184)">
      <rect width="264" height="188" rx="18" fill="#f8fbff" stroke="#d7e4f2" stroke-width="2"/>
      <rect x="20" y="22" width="224" height="82" rx="12" fill="#fef3c7"/>
      <path d="M58 72h148" stroke="#d97706" stroke-width="10" stroke-linecap="round"/>
      <path d="M162 42l44 30-44 30z" fill="#d97706"/>
      <text x="20" y="138" fill="#172033" font-size="18" font-weight="800">03. Feedback</text>
      <rect x="20" y="152" width="182" height="8" rx="4" fill="#cad7e6"/>
      <rect x="20" y="168" width="154" height="8" rx="4" fill="#cad7e6"/>
    </g>
  </g>
  <path d="M422 278h32M746 278h32" stroke="#0f766e" stroke-width="10" stroke-linecap="round"/>
  <path d="M448 262l24 16-24 16M772 262l24 16-24 16" fill="none" stroke="#0f766e" stroke-width="10" stroke-linecap="round" stroke-linejoin="round"/>
</svg>
